<?xml version="1.0" encoding="UTF-8"?>
<svg xmlns="http://www.w3.org/2000/svg"
     xmlns:xlink="http://www.w3.org/1999/xlink"
     version="1.2"
     width="80mm" height="80mm" viewBox="0 0 80 80"
     stroke="none"
     fill="#000000"
     stroke-width="0.3"
     font-size="3.88"
>
<defs>
  <marker id="arrow" markerWidth="15" markerHeight="7" refX="5" refY="3.5" orient="auto" markerUnits="strokeWidth">
    <path d="M0,0 L15,3.5 L0,7 z" stroke="context-stroke" fill="context-stroke"/>
  </marker>
</defs>
<g stroke-width="1.5" fill="#000000" fill-opacity="0.000" stroke="#D3D3D3" id="img-40a3de34-1">
  <g transform="translate(17.78,23.33)">
    <path fill="none" d="M8.8,13.2 L -8.8 -13.2" class="primitive"/>
  </g>
  <g transform="translate(17.78,56.67)">
    <path fill="none" d="M8.8,-13.2 L -8.8 13.2" class="primitive"/>
  </g>
  <g transform="translate(17.78,23.33)">
    <path fill="none" d="M-8.8,-13.2 L 8.8 13.2" class="primitive"/>
  </g>
  <g transform="translate(51.11,40)">
    <path fill="none" d="M18.06,0 L -18.06 0" class="primitive"/>
  </g>
</g>
<g stroke-width="1.5" stroke="#D3D3D3" id="img-40a3de34-2">
  <g transform="translate(10.14,11.87)">
    <path fill="none" d="M-0.37,1.5 L -1.16 -1.74 1.53 0.24" class="primitive"/>
  </g>
  <g transform="translate(10.14,68.13)">
    <path fill="none" d="M1.53,-0.24 L -1.16 1.74 -0.37 -1.5" class="primitive"/>
  </g>
  <g transform="translate(25.42,34.8)">
    <path fill="none" d="M0.37,-1.5 L 1.16 1.74 -1.53 -0.24" class="primitive"/>
  </g>
  <g transform="translate(35.14,40)">
    <path fill="none" d="M1.04,1.14 L -2.09 0 1.04 -1.14" class="primitive"/>
  </g>
</g>
<g font-size="6" stroke="#000000" stroke-opacity="0.000" fill="#000000" id="img-40a3de34-3">
  <g transform="translate(16.39,15)">
    <g class="primitive">
      <text text-anchor="middle" dy="0.35em">2</text>
    </g>
  </g>
  <g transform="translate(16.39,65)">
    <g class="primitive">
      <text text-anchor="middle" dy="0.35em"></text>
    </g>
  </g>
  <g transform="translate(27.5,31.67)">
    <g class="primitive">
      <text text-anchor="middle" dy="0.35em"></text>
    </g>
  </g>
  <g transform="translate(44.17,40)">
    <g class="primitive">
      <text text-anchor="middle" dy="0.35em"></text>
    </g>
  </g>
</g>
<g stroke-width="0" stroke="#000000" stroke-opacity="0.000" id="img-40a3de34-4">
  <g transform="translate(28.89,40)" fill="#0000FF">
    <circle cx="0" cy="0" r="4" class="primitive"/>
  </g>
  <g transform="translate(6.67,6.67)" fill="#FF0000">
    <circle cx="0" cy="0" r="4" class="primitive"/>
  </g>
  <g transform="translate(6.67,73.33)" fill="#FF0000">
    <circle cx="0" cy="0" r="4" class="primitive"/>
  </g>
  <g transform="translate(73.33,40)" fill="#FF0000">
    <circle cx="0" cy="0" r="4" class="primitive"/>
  </g>
</g>
<g font-size="4" stroke="#000000" stroke-opacity="0.000" fill="#000000" id="img-40a3de34-5">
  <g transform="translate(28.89,40)">
    <g class="primitive">
      <text text-anchor="middle" dy="0.35em">X</text>
    </g>
  </g>
  <g transform="translate(6.67,6.67)">
    <g class="primitive">
      <text text-anchor="middle" dy="0.35em">R1</text>
    </g>
  </g>
  <g transform="translate(6.67,73.33)">
    <g class="primitive">
      <text text-anchor="middle" dy="0.35em">R2</text>
    </g>
  </g>
  <g transform="translate(73.33,40)">
    <g class="primitive">
      <text text-anchor="middle" dy="0.35em">R3</text>
    </g>
  </g>
</g>
</svg>
